<svg xmlns="http://www.w3.org/2000/svg" width="49" height="21" viewBox="0 0 49 21" fill="none"><script xmlns=""/>
  <path fill-rule="evenodd" clip-rule="evenodd" d="M8.84057 2.57849C8.27359 3.25404 7.36642 3.78686 6.45925 3.71074C6.34585 2.79733 6.78999 1.82683 7.30972 1.2274C7.8767 0.532825 8.86892 0.0380589 9.67214 0C9.76664 0.951472 9.3981 1.88392 8.84057 2.57849ZM9.66149 3.89154C8.86229 3.84522 8.13305 4.13354 7.54403 4.36643C7.16498 4.51629 6.84399 4.6432 6.59979 4.6432C6.32575 4.6432 5.99151 4.50951 5.61623 4.3594C5.12451 4.16271 4.56232 3.93783 3.97278 3.94863C2.62147 3.96766 1.36466 4.73835 0.674835 5.96575C-0.742619 8.42054 0.306297 12.0552 1.6765 14.0533C2.34743 15.0428 3.15065 16.1275 4.20902 16.0894C4.67464 16.0717 5.00957 15.9286 5.3562 15.7805C5.75527 15.61 6.16983 15.4329 6.81713 15.4329C7.442 15.4329 7.83843 15.6054 8.21898 15.771C8.58082 15.9284 8.9283 16.0796 9.44415 16.0704C10.5403 16.0513 11.2301 15.0808 11.9011 14.0913C12.6251 13.0293 12.9433 11.9928 12.9916 11.8355L12.9972 11.8173C12.9961 11.8161 12.9871 11.812 12.9713 11.8047C12.7293 11.6932 10.8793 10.8404 10.8616 8.55375C10.8438 6.63442 12.3289 5.66197 12.5627 5.50888L12.5627 5.50888C12.577 5.49956 12.5866 5.49328 12.5909 5.49001C11.6459 4.08183 10.1718 3.9296 9.66149 3.89154ZM19.25 16.497V3.13208H24.2308C26.8021 3.13208 28.5986 4.91522 28.5986 7.52134C28.5986 10.1275 26.768 11.9277 24.1627 11.9277H21.3104V16.497H19.25ZM21.3107 4.88121H23.6861C25.4741 4.88121 26.4958 5.84136 26.4958 7.5302C26.4958 9.21903 25.4741 10.1878 23.6776 10.1878H21.3107V4.88121ZM35.4012 14.8939C34.8563 15.9398 33.6558 16.5999 32.3617 16.5999C30.446 16.5999 29.1093 15.4511 29.1093 13.7194C29.1093 12.0049 30.4034 11.019 32.7959 10.8733L35.3672 10.719V9.98171C35.3672 8.89297 34.6605 8.30145 33.4004 8.30145C32.3617 8.30145 31.6039 8.84153 31.4507 9.66452H29.5946C29.6542 7.93282 31.2719 6.67262 33.46 6.67262C35.8184 6.67262 37.351 7.91567 37.351 9.84455V16.497H35.4438V14.8939H35.4012ZM32.9137 15.0141C31.8154 15.0141 31.1172 14.4825 31.1172 13.6681C31.1172 12.828 31.7898 12.3393 33.0755 12.2622L35.3658 12.1165V12.8709C35.3658 14.1225 34.31 15.0141 32.9137 15.0141ZM43.6761 17.0203C42.8502 19.3606 41.9052 20.1322 39.8958 20.1322C39.7425 20.1322 39.2317 20.115 39.1125 20.0807V18.4776C39.2402 18.4948 39.5552 18.5119 39.717 18.5119C40.628 18.5119 41.1389 18.1261 41.4539 17.1231L41.6412 16.5316L38.1504 6.80151H40.3045L42.731 14.697H42.7736L45.2001 6.80151H47.2946L43.6761 17.0203Z" fill="white"/>
</svg>
